<svg width="488" height="515" viewBox="0 0 488 515" fill="none" xmlns="http://www.w3.org/2000/svg">
<rect y="27" width="488" height="488" fill="url(#paint0_linear_543_30)"/>
<path d="M82.1562 125.109H129.031V413H82.1562V125.109ZM277.469 413H227.859L173.562 308.703C172.781 308.703 171.87 308.833 170.828 309.094C170.047 309.094 168.745 309.094 166.922 309.094C165.099 309.094 162.365 309.094 158.719 309.094C155.333 309.094 150.776 309.094 145.047 309.094V274.719H171.609C177.339 274.719 183.068 273.807 188.797 271.984C194.526 269.901 199.734 266.646 204.422 262.219C209.109 257.792 212.885 251.672 215.75 243.859C218.615 235.786 220.047 225.891 220.047 214.172C220.047 209.484 219.396 204.146 218.094 198.156C216.792 191.906 214.057 186.047 209.891 180.578C205.984 174.849 200.385 170.161 193.094 166.516C185.802 162.609 176.167 160.656 164.188 160.656H145.047V125.109H164.969C177.208 125.109 189.318 127.062 201.297 130.969C213.276 134.875 223.953 140.734 233.328 148.547C242.964 156.359 250.646 165.865 256.375 177.062C262.365 188 265.359 200.37 265.359 214.172C265.359 235.005 260.542 252.714 250.906 267.297C241.271 281.88 228.25 292.688 211.844 299.719L277.469 413Z" fill="#262626"/>
<path d="M326 301.106C417.054 254.75 387.594 122.737 259 127.106V162.106C364.363 149.731 357.674 294.985 259 277.106V311.106H288L343 415.106H391L326 301.106Z" fill="#262626" stroke="#262626" stroke-width="2"/>
<defs>
<linearGradient id="paint0_linear_543_30" x1="0" y1="27" x2="488" y2="539" gradientUnits="userSpaceOnUse">
<stop stop-color="#FF0F7B"/>
<stop offset="1" stop-color="#CD3A9D"/>
</linearGradient>
</defs>
</svg>
